<?xml version="1.0" encoding="UTF-8"?>
<svg xmlns="http://www.w3.org/2000/svg" xmlns:xlink="http://www.w3.org/1999/xlink" width="411.02pt" height="210.6pt" viewBox="0 0 411.02 210.6" version="1.1">
<defs>
<clipPath id="clip1">
  <path d="M 35 164 L 373 164 L 373 210.601563 L 35 210.601563 Z M 35 164 "/>
</clipPath>
<clipPath id="clip2">
  <path d="M 341 65 L 411.019531 65 L 411.019531 177 L 341 177 Z M 341 65 "/>
</clipPath>
</defs>
<g id="surface1">
<g clip-path="url(#clip1)" clip-rule="nonzero">
<path style=" stroke:none;fill-rule:nonzero;fill:rgb(0%,44.699097%,73.699951%);fill-opacity:1;" d="M 366.859375 181.199219 C 361.324219 186.152344 354.671875 188.617188 347.621094 188.332031 C 344.777344 188.21875 341.980469 187.59375 339.339844 186.492188 C 334.183594 188.976563 329.347656 189.480469 325.699219 189.3125 C 321.714844 189.132813 317.855469 188.058594 314.332031 186.253906 C 313.726563 186.394531 313.113281 186.535156 312.523438 186.652344 C 309.789063 187.207031 307.304688 187.421875 304.921875 187.320313 C 301.402344 187.171875 298.078125 186.441406 295.046875 185.148438 C 292.304688 183.984375 289.761719 182.363281 287.46875 180.351563 C 284.636719 182.394531 281.3125 183.78125 277.640625 184.328125 C 276.039063 184.566406 274.574219 184.757813 273.277344 184.890625 C 271.414063 185.085938 269.761719 185.144531 268.222656 185.085938 C 264.019531 184.910156 260.066406 183.832031 256.535156 182.023438 C 253.171875 183.074219 249.511719 183.5625 245.578125 183.414063 C 245.675781 183.417969 245.734375 183.417969 245.742188 183.417969 L 245.621094 183.417969 C 244.925781 183.410156 243.625 183.394531 241.992188 183.144531 C 240.691406 182.945313 239.660156 182.679688 239.046875 182.515625 L 238.898438 182.480469 C 238.953125 182.492188 239.269531 182.570313 239.746094 182.652344 C 228.734375 180.761719 224.476563 171.464844 221.359375 164.679688 C 221.347656 164.640625 221.335938 164.621094 221.316406 164.589844 C 220.863281 164.601563 219.53125 164.632813 219.523438 164.632813 L 218.285156 164.664063 L 217.523438 164.683594 C 215.160156 170.109375 212.070313 175.316406 206.1875 178.421875 C 201.367188 180.957031 196.1875 182.132813 190.789063 181.914063 C 188.65625 181.828125 186.574219 181.460938 184.558594 180.882813 C 181.167969 182.027344 177.480469 182.53125 173.53125 182.351563 C 171.09375 182.238281 168.691406 181.90625 166.394531 181.363281 C 164.476563 180.910156 162.480469 180.34375 160.476563 179.675781 C 159.097656 179.21875 157.4375 178.488281 155.738281 177.386719 C 152.816406 179.085938 149.460938 180.179688 145.832031 180.523438 C 143.167969 180.777344 140.253906 180.828125 136.921875 180.675781 C 133.054688 180.5 129.972656 180 127.238281 179.101563 C 125.96875 178.6875 123.546875 177.703125 121 175.75 C 117.128906 178.03125 112.511719 179.203125 107.578125 178.988281 L 107.628906 178.988281 C 107.582031 178.988281 107.109375 178.976563 105.628906 179.023438 C 103.691406 179.078125 102.152344 179.082031 100.894531 179.023438 C 98.007813 178.890625 95.5 178.507813 93.226563 177.855469 C 86.566406 175.9375 82.820313 171.996094 80.851563 169.023438 C 80.214844 168.058594 79.683594 167.03125 79.203125 165.976563 C 77.578125 169.871094 75.417969 173.523438 72.714844 176.898438 C 67.636719 183.246094 60.304688 188.441406 50.925781 192.347656 C 45.378906 194.65625 40.226563 196.015625 35.3125 196.476563 L 35.3125 210.601563 L 372.796875 210.601563 L 372.796875 172.234375 C 371.421875 175.804688 369.636719 178.71875 366.859375 181.199219 "/>
</g>
<path style=" stroke:none;fill-rule:nonzero;fill:rgb(92.89856%,10.998535%,14.099121%);fill-opacity:1;" d="M 46.003906 54.726563 C 48.164063 55.152344 50.214844 55.851563 52.15625 56.761719 C 52.867188 53.085938 53.660156 49.753906 54.558594 46.878906 C 60.648438 27.363281 74.292969 24.796875 79.875 24.597656 C 84.597656 24.429688 89.019531 25.003906 93.015625 26.296875 C 97.996094 27.90625 102.554688 30.898438 106.957031 35.441406 C 110.007813 38.59375 113.304688 43.113281 117.644531 50.105469 C 117.816406 50.378906 117.992188 50.671875 118.164063 50.949219 C 122.195313 47.292969 127.230469 45.003906 132.773438 44.378906 C 135.851563 44.03125 138.796875 44.34375 141.609375 44.90625 C 146.335938 42.011719 152.101563 40.226563 159.09375 39.496094 C 164.984375 38.878906 170.941406 39.476563 176.820313 41.246094 C 181.6875 38.351563 186.734375 36.601563 191.851563 36.0625 C 193.503906 35.890625 195.191406 35.832031 196.898438 35.835938 C 202.175781 22.453125 216.558594 21.375 224.375 20.808594 C 230.492188 20.363281 236.125 20.035156 241.109375 19.832031 L 242.984375 19.753906 C 242.984375 19.753906 244.910156 19.675781 244.914063 19.671875 C 248.574219 19.523438 252.011719 19.304688 255.136719 19.015625 L 258.746094 18.648438 C 261.085938 18.398438 263.507813 18.144531 265.992188 17.980469 C 269.613281 17.738281 273.035156 18.117188 276.160156 19.097656 C 279.472656 20.136719 282.527344 21.898438 285.46875 24.457031 C 289.25 27.738281 291.820313 32.085938 292.894531 37.019531 C 293.847656 41.382813 293.554688 46.039063 292.046875 50.472656 C 292.035156 50.496094 292.023438 50.519531 292.019531 50.539063 C 292.378906 51.527344 292.695313 52.519531 292.917969 53.542969 C 293.273438 55.164063 293.429688 56.808594 293.429688 58.445313 C 296.023438 61.394531 297.816406 64.863281 298.636719 68.628906 C 298.859375 69.648438 298.996094 70.679688 299.078125 71.71875 C 303.089844 67.066406 308.429688 63.804688 314.269531 62.523438 C 324.285156 60.328125 334.207031 63.765625 341.140625 71.730469 C 344.023438 65.039063 349.832031 55.414063 361.378906 52.902344 C 365.359375 52.035156 369.183594 51.824219 372.796875 52.25 L 372.796875 -0.00390625 L 35.3125 -0.00390625 L 35.3125 55.234375 C 38.550781 54.296875 42.113281 53.949219 46.003906 54.726563 "/>
<path style=" stroke:none;fill-rule:nonzero;fill:rgb(13.699341%,12.199402%,12.5%);fill-opacity:1;" d="M 38.542969 104.941406 C 36.648438 96.257813 34.292969 90.429688 31.527344 87.390625 C 29.507813 85.171875 27.007813 84.238281 24.039063 84.679688 C 23.296875 84.789063 21.925781 85.140625 19.929688 85.738281 C 17.929688 86.335938 16.402344 88.6875 15.359375 92.867188 C 14.3125 97.050781 14.53125 102.546875 15.996094 109.269531 C 18.054688 118.710938 20.476563 125.527344 23.246094 129.632813 C 26.011719 133.738281 29.550781 135.132813 33.882813 133.910156 C 38.132813 132.714844 40.554688 130.261719 41.160156 126.605469 C 41.765625 122.945313 40.898438 115.746094 38.542969 104.941406 Z M 53.851563 107.144531 C 54.972656 112.28125 56.425781 118.457031 58.207031 125.613281 C 59.984375 132.777344 60.957031 136.722656 61.121094 137.464844 C 62.097656 141.957031 62.753906 145.859375 63.097656 149.195313 C 63.441406 152.527344 63.441406 155.683594 63.039063 158.597656 C 62.367188 163.488281 60.476563 167.84375 57.496094 171.5625 C 54.519531 175.285156 49.835938 178.53125 43.433594 181.199219 C 38.511719 183.246094 34.242188 184.1875 30.628906 183.996094 C 25.296875 183.714844 21.679688 181.054688 20.109375 176.210938 C 19.507813 174.363281 19.128906 172.894531 18.917969 171.925781 C 18.203125 168.644531 18.300781 165.980469 19.308594 164.351563 C 19.933594 163.339844 20.847656 162.644531 21.796875 162.3125 C 23.453125 161.742188 25.964844 162.03125 29.128906 163.210938 C 31.335938 164.035156 33.753906 165.144531 35.917969 165.703125 C 37.597656 166.136719 39.480469 165.890625 41.054688 165.308594 C 42.15625 164.902344 43.175781 164.210938 44.113281 163.257813 C 45.050781 162.300781 45.835938 161.007813 46.460938 159.398438 C 47.085938 157.785156 47.105469 155.644531 46.523438 152.96875 C 46.230469 151.628906 45.878906 150.429688 45.476563 149.363281 C 45.074219 148.304688 44.707031 147.378906 44.367188 146.589844 C 44.027344 145.808594 43.335938 145.574219 42.304688 145.90625 C 41.746094 146.085938 40.332031 146.996094 38.0625 148.671875 C 35.792969 150.34375 33.789063 151.484375 32.042969 152.058594 C 30.695313 152.5 29.480469 152.675781 28.398438 152.589844 C 27.320313 152.503906 26.019531 152.140625 24.644531 151.445313 C 19.980469 149.085938 15.863281 145.117188 12.472656 140.058594 C 7.929688 133.285156 4.335938 123.789063 1.730469 111.839844 C -0.609375 101.109375 -0.59375 91.234375 1.882813 82.632813 C 4.585938 73.25 9.558594 68.398438 16.640625 67.667969 C 18.890625 67.433594 20.890625 67.753906 22.597656 68.613281 C 27.285156 70.976563 30.648438 72.0625 32.441406 72.140625 C 33.523438 72.1875 34.808594 71.800781 36.121094 70.851563 C 39.058594 68.734375 41.050781 67.816406 42.019531 68.011719 C 43.914063 68.386719 45.542969 69.621094 46.753906 71.832031 C 47.957031 74.042969 48.976563 77.0625 49.8125 80.894531 C 50.347656 83.34375 50.890625 86.621094 51.441406 90.734375 C 52.671875 99.933594 53.476563 105.433594 53.851563 107.144531 "/>
<path style=" stroke:none;fill-rule:nonzero;fill:rgb(13.699341%,12.199402%,12.5%);fill-opacity:1;" d="M 100.980469 79.894531 C 100.457031 77.492188 99.875 75.558594 99.21875 74.140625 C 98.144531 71.832031 96.296875 69.203125 93.917969 66.242188 C 93.089844 65.210938 91.683594 64.773438 89.691406 65.007813 C 87.863281 65.226563 86.402344 65.9375 85.304688 67.15625 C 84.210938 68.382813 83.351563 70.597656 82.742188 73.84375 C 82.132813 77.089844 82.035156 79.667969 82.441406 81.527344 C 82.972656 83.972656 84.148438 86.339844 85.957031 88.578125 C 87.765625 90.820313 89.867188 91.953125 92.15625 92.113281 C 93.179688 92.1875 94.121094 92.167969 94.9375 92.003906 C 96.894531 91.601563 98.578125 90.410156 99.796875 88.519531 C 100.625 87.234375 101.105469 85.832031 101.273438 84.449219 C 101.4375 83.070313 101.34375 81.5625 100.980469 79.894531 Z M 134.046875 113.960938 C 133.492188 115.742188 132.632813 117.164063 131.4375 118.144531 C 130.246094 119.128906 128.777344 119.910156 127.027344 120.480469 C 126.550781 120.636719 126.070313 120.84375 125.714844 120.910156 C 125.140625 121.015625 124.414063 121 123.839844 121.09375 C 123.261719 121.183594 121.632813 119.035156 118.953125 114.519531 C 115.847656 109.285156 112.59375 105.789063 109.367188 104.542969 C 108.304688 104.132813 107.15625 103.976563 106.054688 104.007813 C 104.957031 104.039063 103.390625 104.300781 101.371094 104.808594 C 99.867188 105.183594 99.117188 105.371094 97.617188 105.746094 C 96.96875 105.910156 95.777344 106.210938 94.039063 106.640625 C 92.300781 107.074219 91.351563 107.3125 91.191406 107.351563 C 88.523438 108.019531 86.828125 108.742188 86.171875 109.523438 C 83.878906 112.25 82.433594 116.941406 81.84375 123.398438 C 81.25 129.855469 80.671875 133.578125 80.09375 134.402344 C 78.664063 136.445313 77.042969 137.808594 75.214844 138.410156 C 74.417969 138.671875 73.519531 138.699219 72.660156 138.417969 C 70.039063 137.558594 68.332031 135.570313 67.761719 132.957031 C 67.625 132.332031 67.59375 131.4375 67.695313 130.308594 C 68.097656 125.757813 68.351563 123.015625 68.34375 122.152344 C 68.222656 103.570313 68.8125 90.539063 69.171875 83.164063 C 70.027344 65.761719 71.832031 53.558594 74.140625 46.152344 C 75.753906 40.976563 77.898438 38.355469 80.601563 38.261719 C 82.96875 38.175781 85.003906 38.425781 86.699219 38.976563 C 88.394531 39.523438 90.238281 40.828125 92.21875 42.871094 C 94.199219 44.917969 96.871094 48.699219 100.21875 54.089844 C 103.566406 59.480469 107.035156 65.339844 110.617188 71.585938 C 116.09375 81.132813 121.484375 90.347656 126.742188 99.226563 C 132.003906 108.109375 134.390625 112.859375 134.046875 113.960938 "/>
<path style=" stroke:none;fill-rule:nonzero;fill:rgb(13.699341%,12.199402%,12.5%);fill-opacity:1;" d="M 216.894531 69.023438 C 217.238281 70.609375 217.828125 72.917969 218.65625 75.921875 C 219.488281 78.929688 220.046875 81.066406 220.328125 82.355469 C 220.839844 84.699219 221.078125 86.496094 221.054688 87.761719 C 221.027344 89.023438 220.621094 90.035156 219.859375 90.796875 C 218.738281 91.914063 217.226563 92.820313 215.316406 93.460938 C 214.121094 93.859375 212.980469 94.132813 211.898438 94.261719 C 210.816406 94.390625 209.402344 94.5 207.722656 94.492188 C 206.960938 94.488281 206.25 93.035156 205.628906 90.1875 C 205.285156 88.605469 204.8125 85.9375 204.214844 82.1875 C 203.613281 78.4375 203.207031 76.058594 202.984375 75.046875 C 201.886719 70 200.507813 66.316406 198.90625 63.964844 C 196.757813 60.800781 193.910156 59.390625 190.367188 59.917969 C 186.65625 60.472656 184.464844 62.480469 183.773438 65.980469 C 183.253906 68.617188 183.542969 72.550781 184.667969 77.710938 C 185.132813 79.847656 185.730469 82.273438 186.453125 84.992188 C 187.179688 87.710938 187.8125 89.90625 188.203125 91.5 C 188.953125 94.558594 189.160156 97.089844 189.019531 98.789063 C 188.878906 100.492188 188.007813 101.78125 186.402344 102.652344 C 184.796875 103.527344 182.882813 104.34375 180.652344 105.089844 C 178.742188 105.730469 177.285156 106.007813 176.28125 105.910156 C 175.277344 105.816406 174.40625 104.074219 173.671875 100.699219 C 173.367188 99.304688 172.847656 96.527344 172.117188 92.378906 C 171.386719 88.230469 170.941406 85.753906 170.765625 84.945313 C 169.359375 78.503906 167.726563 73.707031 165.832031 70.535156 C 163.316406 66.320313 160.152344 64.417969 156.4375 64.972656 C 152.640625 65.535156 150.398438 67.894531 149.808594 72.097656 C 149.371094 75.21875 149.871094 80.007813 151.253906 86.34375 C 151.796875 88.847656 152.375 91.28125 152.976563 93.644531 C 153.578125 96.011719 154.222656 98.34375 154.746094 100.554688 C 155.617188 104.21875 155.871094 107.296875 155.675781 109.539063 C 155.480469 111.78125 154.511719 113.203125 152.757813 113.785156 C 152.039063 114.023438 150.988281 114.492188 149.597656 115.179688 C 148.210938 115.863281 147.199219 116.308594 146.558594 116.523438 C 145.285156 116.949219 144.246094 117.105469 143.449219 116.972656 C 142.652344 116.839844 142.078125 116.449219 141.722656 115.808594 C 141.371094 115.171875 141.089844 114.351563 140.871094 113.355469 C 140.652344 112.363281 140.125 108.933594 139.292969 103.105469 C 138.460938 97.28125 137.660156 92.609375 136.886719 89.058594 C 136.238281 86.089844 135.445313 82.78125 134.511719 79.128906 C 133.582031 75.476563 132.546875 71.46875 131.574219 67.210938 C 131.054688 64.921875 130.78125 63.273438 130.707031 62.347656 C 130.632813 61.421875 130.753906 60.714844 131.082031 60.269531 C 132.097656 58.882813 133.472656 58.105469 135.050781 57.929688 C 135.964844 57.824219 137.695313 58.132813 140.230469 58.8125 C 142.765625 59.496094 144.820313 59.71875 146.398438 59.523438 C 147.394531 59.398438 148.917969 58.386719 150.988281 56.539063 C 153.058594 54.699219 156.480469 53.558594 161.230469 53.0625 C 164.648438 52.703125 168.0625 53.113281 171.457031 54.210938 C 174.851563 55.308594 177.121094 55.738281 178.28125 55.597656 C 181.1875 55.242188 183.945313 54.183594 186.5625 52.488281 C 189.175781 50.800781 191.660156 49.871094 193.992188 49.628906 C 196.492188 49.363281 199.09375 49.472656 201.789063 49.902344 C 204.480469 50.335938 207.175781 51.160156 209.8125 52.367188 C 210.847656 52.839844 212.066406 54.710938 213.449219 57.910156 C 214.828125 61.113281 215.972656 64.800781 216.894531 69.023438 "/>
<path style=" stroke:none;fill-rule:nonzero;fill:rgb(13.699341%,12.199402%,12.5%);fill-opacity:1;" d="M 272.027344 33.117188 C 272.433594 33.472656 272.722656 33.949219 272.855469 34.5625 C 273.015625 35.292969 272.933594 36.113281 272.621094 37.03125 C 272.308594 37.953125 271.976563 38.566406 271.617188 38.871094 C 271.257813 39.175781 270.320313 39.398438 268.816406 39.53125 C 268.394531 39.570313 265.609375 39.707031 260.445313 39.898438 C 255.28125 40.089844 251.730469 40.25 249.804688 40.414063 C 247.371094 40.617188 245.105469 40.78125 243 40.90625 C 240.894531 41.035156 238.84375 41.125 236.933594 41.257813 C 235.359375 41.363281 234.074219 41.550781 233.132813 41.730469 C 232.191406 41.917969 231.554688 42.265625 231.214844 42.621094 C 230.53125 43.339844 229.878906 43.828125 229.609375 44.078125 C 229.117188 44.527344 228.941406 45.128906 229.082031 45.769531 C 229.199219 46.3125 229.3125 46.835938 229.425781 47.347656 C 229.539063 47.859375 229.648438 48.359375 229.75 48.84375 C 229.914063 49.597656 230.144531 50.242188 230.433594 50.785156 C 230.722656 51.324219 231.207031 51.792969 231.871094 52.121094 C 233.71875 53.027344 236.097656 53.449219 238.863281 53.453125 C 241.628906 53.453125 244.859375 53.152344 248.566406 52.570313 C 251.277344 52.148438 254.734375 51.511719 258.9375 50.6875 C 263.144531 49.867188 265.492188 49.429688 265.992188 49.355469 C 269.53125 48.8125 271.542969 48.867188 272.023438 49.507813 C 272.507813 50.148438 272.789063 50.671875 272.878906 51.089844 C 272.996094 51.632813 272.953125 52.109375 272.746094 52.519531 C 272.53125 52.929688 272.023438 53.304688 271.269531 53.679688 C 270.054688 54.277344 268.574219 54.894531 266.855469 55.410156 C 265.136719 55.929688 263.339844 56.375 261.460938 56.746094 C 259.496094 57.132813 256.308594 57.632813 251.875 58.210938 C 247.441406 58.792969 244.691406 59.164063 243.628906 59.371094 C 241.175781 59.839844 239.320313 60.347656 238.078125 60.886719 C 236.832031 61.425781 235.882813 62.351563 235.175781 63.394531 C 235 63.648438 234.925781 63.992188 235.015625 64.414063 C 235.050781 64.574219 235.214844 64.933594 235.5 65.480469 C 235.789063 66.027344 235.988281 66.539063 236.089844 67.015625 C 236.183594 67.4375 236.277344 68.050781 236.367188 68.863281 C 236.457031 69.679688 236.539063 70.246094 236.605469 70.5625 C 236.835938 71.621094 237.542969 72.3125 238.71875 72.613281 C 239.890625 72.921875 241.652344 72.878906 243.992188 72.488281 C 246.335938 72.101563 249.277344 71.414063 252.816406 70.457031 C 255.390625 69.757813 257.960938 69.039063 260.527344 68.296875 C 263.089844 67.550781 265.628906 66.792969 268.097656 66.101563 C 270.960938 65.304688 273.203125 64.804688 274.726563 64.546875 C 276.242188 64.292969 277.246094 64.386719 277.726563 64.824219 C 278.203125 65.265625 278.492188 65.703125 278.59375 66.15625 C 278.699219 66.652344 278.625 67.382813 278.363281 68.347656 C 278.101563 69.3125 277.746094 70.039063 277.296875 70.523438 C 276.84375 71.003906 276.058594 71.484375 275.0625 71.75 C 271.917969 72.589844 268.253906 73.214844 264.703125 74.011719 C 261.15625 74.808594 257.375 75.816406 253.371094 77.070313 C 251.207031 77.746094 249.085938 78.4375 247.015625 79.140625 C 244.945313 79.847656 242.898438 80.574219 240.921875 81.226563 C 235.882813 82.882813 232.144531 83.550781 229.957031 83.332031 C 226.890625 83.023438 224.996094 81.207031 224.285156 77.957031 C 223.617188 74.878906 222.84375 71.332031 221.96875 67.3125 C 221.089844 63.292969 220.136719 58.914063 219.105469 54.183594 C 217.949219 48.878906 217.089844 44.738281 216.523438 41.765625 C 215.964844 38.796875 215.753906 37.066406 215.917969 36.613281 C 216.265625 35.632813 219.605469 34.882813 225.855469 34.429688 C 232.105469 33.976563 237.472656 33.675781 241.945313 33.492188 C 243.46875 33.429688 244.226563 33.394531 245.746094 33.332031 C 249.800781 33.167969 253.5625 32.925781 257.027344 32.605469 C 260.492188 32.28125 264.03125 31.832031 267.355469 31.613281 C 268.5 31.535156 269.429688 31.644531 270.019531 31.832031 C 270.613281 32.019531 271.28125 32.472656 272.027344 33.117188 "/>
<path style=" stroke:none;fill-rule:nonzero;fill:rgb(13.699341%,12.199402%,12.5%);fill-opacity:1;" d="M 179.160156 145.816406 C 179.304688 147.539063 179.609375 150.058594 180.0625 153.375 C 180.519531 156.691406 180.804688 159.0625 180.925781 160.46875 C 181.144531 163.027344 181.160156 164.945313 180.972656 166.210938 C 180.789063 167.480469 180.246094 168.347656 179.378906 168.816406 C 178.101563 169.507813 176.445313 169.816406 174.429688 169.722656 C 173.167969 169.664063 171.980469 169.5 170.871094 169.234375 C 169.757813 168.972656 168.3125 168.582031 166.617188 168.019531 C 165.847656 167.765625 165.339844 166.269531 165.109375 163.582031 C 164.980469 162.085938 164.871094 159.597656 164.789063 156.09375 C 164.703125 152.589844 164.621094 150.351563 164.539063 149.390625 C 164.128906 144.59375 163.261719 141.019531 162.003906 138.742188 C 160.3125 135.6875 157.703125 134.363281 154.148438 134.765625 C 150.429688 135.183594 147.988281 136.851563 146.804688 139.640625 C 145.910156 141.742188 145.621094 144.851563 145.972656 149 C 146.121094 150.714844 146.351563 152.679688 146.671875 154.890625 C 146.988281 157.105469 147.292969 158.90625 147.445313 160.199219 C 147.734375 162.660156 147.574219 164.648438 147.175781 165.878906 C 146.777344 167.101563 145.707031 167.796875 143.964844 167.964844 C 142.214844 168.132813 140.164063 168.15625 137.8125 168.046875 C 135.792969 167.957031 134.285156 167.742188 133.296875 167.417969 C 132.304688 167.09375 131.707031 165.757813 131.503906 163.402344 C 131.421875 162.433594 131.34375 160.515625 131.273438 157.648438 C 131.199219 154.78125 131.140625 153.0625 131.089844 152.5 C 130.707031 147.988281 129.835938 144.566406 128.46875 142.351563 C 126.652344 139.398438 123.851563 138.175781 120.128906 138.59375 C 116.320313 139.023438 113.75 140.539063 112.484375 143.023438 C 111.546875 144.859375 111.242188 147.632813 111.558594 151.332031 C 111.683594 152.796875 111.847656 154.222656 112.054688 155.617188 C 112.257813 157.011719 112.507813 158.402344 112.660156 159.695313 C 112.910156 161.816406 112.65625 163.589844 112.085938 164.753906 C 111.515625 165.914063 110.304688 166.4375 108.453125 166.359375 C 107.691406 166.324219 106.5625 166.339844 105.058594 166.382813 C 103.554688 166.425781 102.46875 166.425781 101.796875 166.394531 C 100.449219 166.332031 99.386719 166.1875 98.613281 165.964844 C 97.839844 165.742188 97.335938 165.457031 97.09375 165.097656 C 96.851563 164.730469 96.710938 164.304688 96.667969 163.808594 C 96.628906 163.308594 96.699219 161.636719 96.882813 158.757813 C 97.0625 155.878906 97.078125 153.519531 96.921875 151.71875 C 96.792969 150.210938 96.582031 148.527344 96.292969 146.675781 C 96 144.828125 95.671875 142.78125 95.449219 140.660156 C 95.328125 139.515625 95.339844 138.660156 95.425781 138.183594 C 95.507813 137.707031 95.746094 137.339844 96.140625 137.078125 C 97.382813 136.257813 98.828125 135.730469 100.394531 135.503906 C 101.304688 135.371094 102.9375 135.390625 105.296875 135.597656 C 107.652344 135.804688 109.621094 135.816406 111.191406 135.601563 C 112.183594 135.46875 113.839844 134.773438 116.152344 133.457031 C 118.464844 132.140625 121.96875 131.089844 126.671875 130.367188 C 130.054688 129.851563 133.316406 129.882813 136.46875 130.523438 C 139.613281 131.164063 141.773438 131.445313 142.933594 131.289063 C 145.824219 130.894531 148.664063 129.941406 151.457031 128.359375 C 154.25 126.777344 156.800781 125.769531 159.113281 125.417969 C 161.585938 125.039063 164.109375 125.003906 166.6875 125.332031 C 169.265625 125.660156 171.796875 126.433594 174.230469 127.703125 C 175.191406 128.203125 176.15625 130.191406 177.121094 133.675781 C 178.085938 137.164063 178.765625 141.222656 179.160156 145.816406 "/>
<path style=" stroke:none;fill-rule:nonzero;fill:rgb(13.699341%,12.199402%,12.5%);fill-opacity:1;" d="M 226.179688 132.066406 C 226.011719 130.070313 225.714844 128.453125 225.269531 127.277344 C 224.546875 125.363281 223.113281 123.183594 221.214844 120.847656 C 220.558594 120.035156 219.242188 119.746094 217.265625 120.023438 C 215.449219 120.277344 213.917969 120.90625 212.667969 121.890625 C 211.414063 122.878906 210.246094 124.605469 209.160156 127.035156 C 208.074219 129.472656 207.589844 131.347656 207.707031 132.710938 C 207.859375 134.507813 208.652344 136.257813 210.097656 138.003906 C 211.539063 139.75 213.433594 140.765625 215.683594 141.085938 C 216.6875 141.226563 217.617188 141.292969 218.449219 141.242188 C 220.441406 141.117188 222.273438 140.359375 223.765625 138.949219 C 224.765625 138.003906 225.449219 136.914063 225.8125 135.804688 C 226.175781 134.695313 226.296875 133.449219 226.179688 132.066406 Z M 254.320313 167.234375 C 253.519531 168.683594 252.460938 169.683594 251.121094 170.167969 C 249.785156 170.652344 248.195313 170.851563 246.355469 170.78125 C 245.851563 170.761719 245.335938 170.78125 244.96875 170.726563 C 244.347656 170.632813 243.644531 170.390625 243.050781 170.289063 C 242.457031 170.183594 241.121094 167.855469 239.078125 163.398438 C 236.710938 158.230469 233.964844 154.691406 230.929688 153.089844 C 229.921875 152.554688 228.808594 152.222656 227.707031 152.058594 C 226.609375 151.894531 225.015625 151.84375 222.929688 151.894531 C 221.378906 151.933594 220.605469 151.953125 219.054688 151.988281 C 218.386719 152.007813 217.160156 152.039063 215.367188 152.082031 C 213.574219 152.125 212.59375 152.152344 212.425781 152.15625 C 209.671875 152.226563 207.878906 152.472656 207.101563 152.914063 C 204.414063 154.445313 202.238281 157.378906 200.621094 161.433594 C 199.007813 165.492188 197.824219 167.636719 197.109375 168.015625 C 195.355469 168.9375 193.507813 169.359375 191.578125 169.28125 C 190.738281 169.246094 189.855469 169.0625 189.023438 168.6875 C 186.53125 167.570313 185.164063 166.085938 185.023438 164.46875 C 184.992188 164.078125 185.109375 163.546875 185.394531 162.914063 C 186.539063 160.359375 187.242188 158.746094 187.378906 158.234375 C 190.261719 147.207031 192.921875 138.570313 194.429688 133.640625 C 197.988281 121.992188 201.570313 112.824219 204.917969 106.804688 C 207.242188 102.621094 209.695313 100.09375 212.324219 99.523438 C 214.617188 99.023438 216.542969 98.851563 218.101563 99.011719 C 219.664063 99.171875 221.257813 99.964844 222.882813 101.417969 C 224.511719 102.871094 226.574219 105.761719 229.082031 110.1875 C 231.589844 114.617188 234.171875 119.640625 236.828125 125.269531 C 240.890625 133.867188 244.960938 142.761719 249.003906 151.921875 C 253.046875 161.085938 254.8125 166.34375 254.320313 167.234375 "/>
<path style=" stroke:none;fill-rule:nonzero;fill:rgb(13.699341%,12.199402%,12.5%);fill-opacity:1;" d="M 313.066406 146.890625 C 313.835938 155.902344 314.222656 161.847656 314.210938 164.707031 C 314.1875 170.230469 313.546875 173.167969 312.316406 173.507813 C 311.089844 173.851563 309.875 174.148438 308.679688 174.390625 C 307.488281 174.628906 306.503906 174.722656 305.746094 174.691406 C 304.570313 174.640625 303.550781 174.429688 302.679688 174.058594 C 301.808594 173.6875 300.984375 173.15625 300.214844 172.464844 C 299.441406 171.773438 298.851563 170.539063 298.453125 168.777344 C 298.050781 167.019531 297.742188 164.863281 297.523438 162.304688 C 297.347656 160.21875 297.105469 156.410156 296.804688 150.859375 C 296.5 145.308594 296.3125 142.101563 296.238281 141.246094 C 296.070313 139.253906 295.859375 137.265625 295.605469 135.277344 C 295.351563 133.289063 295.03125 131.402344 294.625 129.628906 C 293.710938 125.613281 292.488281 122.546875 290.980469 120.566406 C 289.253906 118.300781 287.003906 117.335938 284.363281 117.652344 C 282.058594 117.929688 280.019531 119.714844 278.320313 122.902344 C 276.882813 125.597656 275.9375 128.597656 275.472656 131.882813 C 275.261719 133.34375 275.15625 135.109375 275.167969 137.171875 C 275.179688 139.238281 275.269531 141.296875 275.445313 143.347656 C 275.683594 146.117188 276.097656 149.6875 276.683594 154.0625 C 277.269531 158.441406 277.585938 160.855469 277.625 161.304688 C 277.90625 164.613281 277.847656 167.152344 277.457031 168.921875 C 277.0625 170.691406 276.164063 171.683594 274.757813 171.894531 C 273.351563 172.105469 272.1875 172.25 271.277344 172.347656 C 270.367188 172.4375 269.613281 172.476563 269.023438 172.453125 C 266.25 172.335938 264.085938 171.210938 262.710938 169.136719 C 262.316406 168.546875 261.976563 166.40625 261.660156 162.746094 C 261.246094 157.898438 260.929688 153.664063 260.707031 150.046875 C 260.480469 146.429688 260.316406 142.953125 260.085938 139.757813 C 259.917969 137.402344 259.5625 134.355469 259.117188 130.707031 C 258.679688 127.058594 258.40625 124.644531 258.308594 123.453125 C 257.949219 119.285156 258.070313 116.769531 258.546875 115.933594 C 259.503906 114.246094 260.34375 112.914063 261.113281 112.191406 C 261.890625 111.472656 262.773438 111.035156 263.769531 110.890625 C 264.675781 110.753906 265.816406 110.878906 267.191406 111.265625 C 270.359375 112.164063 272.53125 112.550781 273.691406 112.390625 C 276.011719 112.066406 278.085938 110.9375 279.929688 108.964844 C 281.769531 106.988281 284.257813 105.738281 287.398438 105.253906 C 292.441406 104.476563 296.074219 104.367188 298.304688 104.953125 C 300.527344 105.542969 303.550781 108.476563 307.367188 113.964844 C 308.511719 115.609375 309.574219 119.503906 310.558594 125.640625 C 311.546875 131.773438 312.382813 138.871094 313.066406 146.890625 "/>
<path style=" stroke:none;fill-rule:nonzero;fill:rgb(13.699341%,12.199402%,12.5%);fill-opacity:1;" d="M 327.757813 90.953125 C 327.800781 92.472656 326.140625 93.605469 323.003906 94.136719 C 320.773438 94.515625 318.730469 94.390625 316.875 93.785156 C 315.023438 93.183594 313.78125 92.097656 313.144531 90.527344 C 312.507813 88.960938 312.171875 87.933594 312.128906 87.433594 C 312.085938 86.929688 312.050781 86.527344 312.027344 86.226563 C 311.792969 83.519531 312.5625 80.808594 314.382813 78.519531 C 315.574219 77.015625 317.101563 76.066406 318.664063 75.726563 C 321.375 75.128906 323.992188 76.171875 326.097656 78.871094 C 327.050781 80.097656 327.613281 81.964844 327.808594 84.261719 C 327.90625 85.410156 327.921875 86.789063 327.851563 88.394531 C 327.777344 89.996094 327.757813 90.855469 327.757813 90.953125 Z M 333.335938 113.015625 C 333.257813 115.429688 332.597656 118.566406 332.363281 121.542969 C 332.132813 124.523438 332.183594 127.941406 332.515625 131.808594 C 332.863281 135.890625 333.191406 139.804688 333.515625 143.570313 C 333.835938 147.335938 334.148438 150.992188 334.449219 154.546875 C 334.988281 160.820313 335.277344 165.371094 335.308594 168.183594 C 335.339844 171 334.9375 172.757813 334.191406 173.453125 C 331.808594 175.671875 329.273438 176.808594 326.597656 176.683594 C 324.503906 176.589844 322.605469 175.746094 321.007813 174.175781 C 320.277344 173.460938 319.410156 169.613281 318.40625 162.703125 C 317.398438 155.789063 316.550781 148.296875 315.859375 140.199219 C 315.144531 131.804688 314.652344 124.144531 314.398438 117.203125 C 314.136719 110.257813 314.261719 106.109375 314.773438 104.761719 C 315.289063 103.414063 316.167969 102.265625 317.425781 101.304688 C 318.679688 100.34375 320.046875 99.730469 321.53125 99.503906 C 322.4375 99.359375 323.417969 99.339844 324.472656 99.4375 C 325.527344 99.535156 326.949219 99.816406 328.742188 100.28125 C 329.511719 100.484375 330.394531 101.835938 331.40625 104.347656 C 332.410156 106.859375 333.4375 110.136719 333.335938 113.015625 "/>
<g clip-path="url(#clip2)" clip-rule="nonzero">
<path style=" stroke:none;fill-rule:nonzero;fill:rgb(13.699341%,12.199402%,12.5%);fill-opacity:1;" d="M 381.226563 117.519531 C 380.964844 114.445313 380.589844 111.960938 380.089844 110.117188 C 379.277344 107.128906 377.726563 103.683594 375.714844 99.949219 C 375.011719 98.644531 373.679688 98.105469 371.699219 98.378906 C 369.886719 98.636719 368.375 99.488281 367.160156 100.929688 C 365.949219 102.378906 364.855469 104.980469 363.882813 108.726563 C 362.910156 112.46875 362.511719 115.386719 362.695313 117.539063 C 362.9375 120.375 363.828125 123.175781 365.359375 125.980469 C 366.894531 128.785156 368.859375 130.445313 371.105469 131.023438 C 372.121094 131.285156 373.0625 131.417969 373.890625 131.367188 C 375.882813 131.242188 377.699219 130.121094 379.113281 128.019531 C 380.082031 126.585938 380.710938 124.945313 381.023438 123.253906 C 381.339844 121.566406 381.40625 119.652344 381.226563 117.519531 Z M 410.960938 171.347656 C 410.214844 173.539063 409.199219 175.046875 407.886719 175.796875 C 406.574219 176.550781 404.996094 176.882813 403.152344 176.8125 C 402.644531 176.792969 402.109375 176.835938 401.765625 176.761719 C 401.160156 176.636719 400.433594 176.289063 399.835938 176.144531 C 399.238281 176 397.804688 172.484375 395.558594 165.710938 C 392.964844 157.855469 390.078125 152.445313 386.941406 149.9375 C 385.925781 149.121094 384.78125 148.59375 383.671875 148.328125 C 382.566406 148.058594 380.972656 147.949219 378.882813 148 C 377.332031 148.039063 376.554688 148.058594 375.007813 148.097656 C 374.335938 148.109375 373.105469 148.144531 371.316406 148.1875 C 369.523438 148.230469 368.546875 148.257813 368.382813 148.261719 C 365.628906 148.328125 363.835938 148.710938 363.085938 149.390625 C 360.460938 151.785156 358.4375 156.410156 357.03125 162.90625 C 355.621094 169.402344 354.5625 172.894531 353.867188 173.515625 C 352.160156 175.039063 350.339844 175.777344 348.410156 175.703125 C 347.570313 175.667969 346.671875 175.375 345.835938 174.796875 C 343.273438 173.027344 341.84375 170.625 341.613281 167.972656 C 341.5625 167.339844 341.644531 166.476563 341.898438 165.433594 C 342.90625 161.234375 343.515625 158.617188 343.621094 157.777344 C 345.925781 139.734375 348.128906 126.074219 349.394531 118.25 C 352.378906 99.796875 355.546875 85.671875 358.628906 76.609375 C 360.78125 70.285156 363.125 66.679688 365.75 66.109375 C 368.046875 65.609375 369.988281 65.570313 371.570313 66 C 373.152344 66.429688 374.800781 67.828125 376.507813 70.234375 C 378.21875 72.640625 380.429688 77.277344 383.15625 84.25 C 385.882813 91.222656 388.691406 99.046875 391.613281 107.734375 C 396.070313 121.003906 400.546875 134.5625 404.984375 148.375 C 409.425781 162.1875 411.414063 170 410.960938 171.347656 "/>
</g>
</g>
</svg>
